<?xml version="1.0" encoding="utf-8"?>
<svg version="1.1" xmlns:xlink="http://www.w3.org/1999/xlink" width="16px" height="16px" xmlns="http://www.w3.org/2000/svg">
  <g transform="matrix(1 0 0 1 -703 -4868 )">
    <path d="M 3.984375 1.072916666666666  C 5.210069444444445 0.3576388888888875  6.548611111111112 0  8 0  C 9.45138888888889 0  10.789930555555557 0.3576388888888875  12.015625 1.072916666666666  C 13.241319444444445 1.7881944444444429  14.211805555555557 2.7586805555555554  14.927083333333334 3.984375  C 15.642361111111109 5.210069444444443  16 6.548611111111109  16 8  C 16 9.45138888888889  15.642361111111109 10.789930555555554  14.927083333333334 12.015625  C 14.211805555555557 13.241319444444445  13.241319444444445 14.211805555555555  12.015625 14.927083333333334  C 10.789930555555557 15.642361111111112  9.45138888888889 16  8 16  C 6.548611111111112 16  5.210069444444445 15.642361111111112  3.984375 14.927083333333334  C 2.758680555555556 14.211805555555555  1.7881944444444446 13.241319444444445  1.0729166666666667 12.015625  C 0.35763888888888884 10.789930555555554  0 9.45138888888889  0 8  C 0 6.548611111111109  0.35763888888888884 5.210069444444443  1.0729166666666667 3.984375  C 1.7881944444444446 2.7586805555555554  2.758680555555556 1.7881944444444429  3.984375 1.072916666666666  Z M 9.239583333333334 13.234375  C 9.302083333333334 13.168402777777779  9.333333333333334 13.086805555555555  9.333333333333334 12.989583333333334  L 9.333333333333334 11.010416666666668  C 9.333333333333334 10.913194444444443  9.302083333333334 10.831597222222221  9.239583333333334 10.765625  C 9.177083333333334 10.699652777777779  9.100694444444445 10.666666666666668  9.010416666666666 10.666666666666668  L 7.010416666666667 10.666666666666668  C 6.920138888888889 10.666666666666668  6.840277777777779 10.70138888888889  6.770833333333333 10.770833333333332  C 6.701388888888889 10.840277777777775  6.666666666666667 10.92013888888889  6.666666666666667 11.010416666666668  L 6.666666666666667 12.989583333333334  C 6.666666666666667 13.079861111111112  6.701388888888889 13.159722222222221  6.770833333333333 13.229166666666666  C 6.840277777777779 13.298611111111112  6.920138888888889 13.333333333333334  7.010416666666667 13.333333333333334  L 9.010416666666666 13.333333333333334  C 9.100694444444445 13.333333333333334  9.177083333333334 13.300347222222221  9.239583333333334 13.234375  Z M 9.203125 9.588541666666668  C 9.269097222222223 9.536458333333332  9.305555555555555 9.475694444444443  9.3125 9.40625  L 9.5 2.9375  C 9.500000000000002 2.854166666666666  9.465277777777779 2.791666666666666  9.395833333333334 2.75  C 9.32638888888889 2.694444444444443  9.243055555555555 2.666666666666666  9.145833333333334 2.666666666666666  L 6.854166666666667 2.666666666666666  C 6.7569444444444455 2.666666666666666  6.673611111111112 2.694444444444443  6.604166666666667 2.75  C 6.534722222222222 2.791666666666666  6.5 2.854166666666666  6.5 2.9375  L 6.677083333333333 9.40625  C 6.677083333333333 9.475694444444443  6.711805555555556 9.536458333333332  6.78125 9.588541666666668  C 6.8506944444444455 9.640625  6.934027777777779 9.666666666666668  7.03125 9.666666666666668  L 8.958333333333334 9.666666666666668  C 9.055555555555555 9.666666666666668  9.137152777777779 9.640625  9.203125 9.588541666666668  Z " fill-rule="nonzero" fill="#d9001b" stroke="none" transform="matrix(1 0 0 1 703 4868 )" />
  </g>
</svg>